# Blender v2.92.0 OBJ File: 'log.blend'
# www.blender.org
mtllib log.mtl
o Cube
v 0.375000 0.375000 -4.000000
v 0.375000 -0.375000 -4.000000
v -0.375000 0.375000 -4.000000
v -0.375000 -0.375000 -4.000000
v -0.375000 -0.375000 4.000000
v -0.375000 0.375000 4.000000
v 0.375000 0.375000 4.000000
v 0.375000 -0.375000 4.000000
v -0.458333 0.000000 4.000000
v 0.458333 0.000000 4.000000
v 0.000000 -0.458333 4.000000
v 0.000000 -0.458333 -4.000000
v -0.458333 0.000000 -4.000000
v 0.458333 0.000000 -4.000000
v 0.000000 0.458333 -4.000000
v 0.000000 0.458333 4.000000
v -0.000000 0.000000 4.000000
v 0.000000 0.000000 -4.000000
vt 0.067937 0.373653
vt 0.228343 0.373653
vt 0.186826 0.560479
vt 0.000000 0.518962
vt 0.373653 0.441590
vt 0.373653 0.601996
vt 0.305716 0.747306
vt 0.145309 0.747306
vt 0.000000 0.679369
vt 0.843413 0.835129
vt 0.686826 0.835129
vt 0.686826 0.417565
vt 0.843413 0.417565
vt 0.530240 0.417565
vt 0.530240 0.835130
vt 0.373653 0.835130
vt 0.373653 0.417565
vt 1.000000 0.417565
vt 1.000000 0.835129
vt 0.373653 0.000000
vt 0.530240 0.000000
vt 0.530240 0.417565
vt 0.373653 0.417565
vt 0.686826 0.000000
vt 0.686826 0.417565
vt 1.000000 0.000000
vt 1.000000 0.417565
vt 0.843413 0.417565
vt 0.843413 0.000000
vt 0.686826 0.417565
vt 0.686826 0.000000
vt 0.067937 0.000000
vt 0.228343 0.000000
vt 0.186826 0.186826
vt 0.000000 0.145309
vt 0.373653 0.067937
vt 0.373653 0.228343
vt 0.305716 0.373653
vt 0.145309 0.373653
vt 0.000000 0.305716
vn -0.0000 0.0000 1.0000
vn -0.9762 0.2169 0.0000
vn 0.2169 0.9762 0.0000
vn -0.2169 0.9762 0.0000
vn -0.9762 -0.2169 0.0000
vn -0.2169 -0.9762 0.0000
vn 0.2169 -0.9762 0.0000
vn 0.9762 -0.2169 0.0000
vn 0.9762 0.2169 0.0000
vn 0.0000 0.0000 -1.0000
usemtl Material
s off
f 8/1/1 10/2/1 17/3/1 11/4/1
f 10/2/1 7/5/1 16/6/1 17/3/1
f 17/3/1 16/6/1 6/7/1 9/8/1
f 11/4/1 17/3/1 9/8/1 5/9/1
f 9/10/2 6/11/2 3/12/2 13/13/2
f 15/14/3 16/15/3 7/16/3 1/17/3
f 3/12/4 6/11/4 16/15/4 15/14/4
f 4/18/5 5/19/5 9/10/5 13/13/5
f 4/20/6 12/21/6 11/22/6 5/23/6
f 11/22/7 12/21/7 2/24/7 8/25/7
f 8/26/8 2/27/8 14/28/8 10/29/8
f 10/29/9 14/28/9 1/30/9 7/31/9
f 4/32/10 13/33/10 18/34/10 12/35/10
f 13/33/10 3/36/10 15/37/10 18/34/10
f 18/34/10 15/37/10 1/38/10 14/39/10
f 12/35/10 18/34/10 14/39/10 2/40/10
